PathFileType	4	(X/Y/Z)	/Users/itak/Documents/Research/Walk-IL/dataset/trc/00046_00004.trc
DataRate	CameraRate	NumFrames	NumMarkers	Units	OrigDataRate	OrigDataStartFrame	OrigNumFrames
100.000000	100.000000	4	53	mm	100.000000	180	482
Frame#	Time	RPSI			LPSI			L3			STRN			T10			C7			CLAV			RBAK			LBAK			LSHO			LUPA			LAEL			LAOL			LWTS			LWPS			LFRA			LIFD			LHPS			LHTS			RSHO			RUPA			RAEL			RAOL			RWTS			RWPS			RFRA			RIFD			RHTS			RHPS			RBHD			LFHD			RFHD			LBHD			LHIP			RASI			LASI			LKNE			LTHI			LANK			LTIP			LTOE			LMT1			LMT5			LHEE			RKNE			RTHI			RANK			RTIP			RTOE			RMT1			RMT5			RHEE			RHIP			
		X1	Y1	Z1	X2	Y2	Z2	X3	Y3	Z3	X4	Y4	Z4	X5	Y5	Z5	X6	Y6	Z6	X7	Y7	Z7	X8	Y8	Z8	X9	Y9	Z9	X10	Y10	Z10	X11	Y11	Z11	X12	Y12	Z12	X13	Y13	Z13	X14	Y14	Z14	X15	Y15	Z15	X16	Y16	Z16	X17	Y17	Z17	X18	Y18	Z18	X19	Y19	Z19	X20	Y20	Z20	X21	Y21	Z21	X22	Y22	Z22	X23	Y23	Z23	X24	Y24	Z24	X25	Y25	Z25	X26	Y26	Z26	X27	Y27	Z27	X28	Y28	Z28	X29	Y29	Z29	X30	Y30	Z30	X31	Y31	Z31	X32	Y32	Z32	X33	Y33	Z33	X34	Y34	Z34	X35	Y35	Z35	X36	Y36	Z36	X37	Y37	Z37	X38	Y38	Z38	X39	Y39	Z39	X40	Y40	Z40	X41	Y41	Z41	X42	Y42	Z42	X43	Y43	Z43	X44	Y44	Z44	X45	Y45	Z45	X46	Y46	Z46	X47	Y47	Z47	X48	Y48	Z48	X49	Y49	Z49	X50	Y50	Z50	X51	Y51	Z51	X52	Y52	Z52	X53	Y53	Z53	

181	1.8	-1059.424926757812	1053.401733398438	218.0613555908203	-1085.097534179688	1044.582885742188	57.8781852722168	-1075.890380859375	1110.4970703125	124.7530746459961	-841.2135620117188	1293.289794921875	101.2283325195312	-1092.283569335938	1254.896240234375	108.001220703125	-1027.629028320312	1518.18896484375	81.39415740966797	-877.4135131835938	1420.788940429688	92.37769317626953	-1088.53271484375	1388.968994140625	167.8736267089844	-1048.521728515625	1473.540893554688	-14.22848320007324	-946.359375	1473.493286132812	-89.08157348632812	-983.94140625	1346.362060546875	-161.7271575927734	-992.2080078125	1126.856201171875	-180.8362731933594	-1047.929931640625	1119.725463867188	-90.77841186523438	-905.6556396484375	877.1763305664062	-114.0086288452148	-983.7933959960938	860.6754760742188	-155.0967864990234	-981.175537109375	1010.622741699219	-181.6255340576172	-878.6873168945312	696.1091918945312	-86.03874206542969	-950.4495239257812	771.0070190429688	-150.6415710449219	-885.6092529296875	782.9046020507812	-122.7534103393555	-954.4413452148438	1505.828979492188	258.4071044921875	-974.51953125	1440.317260742188	331.4743041992188	-1037.677001953125	1181.34814453125	369.6871337890625	-1035.746337890625	1147.270629882812	275.2769165039062	-940.2598266601562	906.123046875	361.4393005371094	-1007.757141113281	904.4591064453125	425.2861633300781	-1034.32080078125	1105.716186523438	391.120361328125	-948.741943359375	721.349609375	354.6728210449219	-922.5458374023438	795.2240600585938	383.3741149902344	-978.2784423828125	800.380859375	432.2778015136719	-939.0389404296875	1681.959228515625	-13.32538032531738	-843.5576782226562	1723.856201171875	178.4111480712891	-795.7744140625	1719.381103515625	92.35023498535156	-1002.449340820312	1687.304321289062	116.4758987426758	-1013.266845703125	936.4226684570312	-59.22010040283203	-845.3447875976562	978.7132568359375	209.7569274902344	-884.1624145507812	979.7291870117188	-21.23012924194336	-1019.129455566406	496.9898681640625	-4.907986640930176	-1024.034057617188	635.13037109375	-40.21461868286133	-1211.509399414062	42.76649475097656	20.41287040710449	-1145.731811523438	281.0910034179688	-7.341447353363037	-995.83642578125	41.35786819458008	97.03428649902344	-1056.012573242188	51.44695663452148	108.7198791503906	-1086.4677734375	40.28160858154297	5.529181003570557	-1284.086181640625	53.80014419555664	68.56833648681641	-762.4064331054688	549.2286987304688	252.8020324707031	-856.2734985351562	797.3680419921875	298.0445556640625	-740.3970947265625	52.56986618041992	209.3037872314453	-748.662353515625	421.110107421875	248.3861541748047	-512.524658203125	98.96788787841797	186.7553253173828	-572.652587890625	90.60198211669922	151.9470520019531	-597.5760498046875	79.26081848144531	245.1251525878906	-789.7489624023438	44.65852355957031	158.6571502685547	-924.1351318359375	948.21435546875	305.2903747558594	
182	1.81	-1053.385986328125	1051.77783203125	218.9709014892578	-1079.507690429688	1043.2646484375	58.86177062988281	-1070.12890625	1109.314697265625	125.7528076171875	-834.9187622070312	1291.76171875	102.2017288208008	-1086.210815429688	1253.751831054688	108.9776077270508	-1021.015197753906	1516.93212890625	82.46871948242188	-870.9713134765625	1419.332153320312	93.51461791992188	-1082.196655273438	1387.744750976562	168.8383483886719	-1041.922729492188	1472.380859375	-13.23106575012207	-939.7142333984375	1472.191528320312	-87.99057769775391	-977.2904663085938	1345.137084960938	-160.7782592773438	-985.517578125	1125.6064453125	-179.9759063720703	-1041.424682617188	1118.452270507812	-90.02607727050781	-898.965087890625	875.9400024414062	-112.9853210449219	-976.9620971679688	859.4337158203125	-154.2442321777344	-974.4424438476562	1009.375244140625	-180.7641143798828	-872.1770629882812	694.76171875	-84.95362091064453	-943.5523681640625	769.7957153320312	-149.7485504150391	-878.7997436523438	781.7505493164062	-121.7119140625	-947.9641723632812	1504.309448242188	259.5072021484375	-968.1681518554688	1438.791870117188	332.510498046875	-1031.8046875	1179.924926757812	370.5607604980469	-1029.923461914062	1145.893798828125	276.1236267089844	-934.798583984375	904.5726928710938	362.0999450683594	-1002.296936035156	902.9434814453125	425.9410095214844	-1028.556640625	1104.250122070312	391.9637145996094	-943.312255859375	719.8052978515625	355.2389831542969	-917.1264038085938	793.6425170898438	384.0421447753906	-972.9274291992188	798.828125	432.8747863769531	-931.9888916015625	1680.41943359375	-12.20057582855225	-837.6304321289062	1722.451538085938	180.0383453369141	-789.3500366210938	1718.0341796875	94.27117919921875	-996.0943603515625	1685.711181640625	117.1827697753906	-1007.951049804688	935.4325561523438	-58.50698089599609	-839.1671142578125	977.2340087890625	209.9852294921875	-878.7992553710938	978.5271606445312	-20.84070777893066	-1015.507507324219	496.1187438964844	-4.815549850463867	-1020.014892578125	634.4034423828125	-39.90598678588867	-1211.43408203125	42.97654724121094	20.56447792053223	-1143.8818359375	281.05419921875	-7.220899105072021	-995.8802490234375	41.35150909423828	97.02820587158203	-1055.977905273438	51.45414352416992	108.6968765258789	-1086.454223632812	40.22630310058594	5.490652561187744	-1284.060546875	54.72584915161133	68.60796356201172	-755.5841064453125	548.2294311523438	253.4730987548828	-849.7985229492188	795.9000244140625	299.0743408203125	-725.4217529296875	52.4547004699707	209.1415557861328	-740.3770751953125	420.709716796875	248.9862060546875	-498.0761108398438	102.7120132446289	189.9034576416016	-557.4946899414062	93.45220947265625	154.2136993408203	-583.5300903320312	81.36357116699219	246.9533081054688	-773.8526000976562	43.90878677368164	157.8428344726562	-917.709228515625	946.5675048828125	305.603271484375	
183	1.82	-1047.1982421875	1050.1416015625	219.9349212646484	-1073.77880859375	1041.942626953125	59.90805053710938	-1064.2490234375	1108.114379882812	126.8078994750977	-828.495361328125	1290.211303710938	103.2364959716797	-1080.005981445312	1252.580322265625	110.0216445922852	-1014.266357421875	1515.656982421875	83.63275146484375	-864.3902587890625	1417.850463867188	94.72505187988281	-1075.721923828125	1386.492553710938	169.8859252929688	-1035.193359375	1471.210205078125	-12.14887142181396	-932.94091796875	1470.880737304688	-86.81631469726562	-970.4950561523438	1343.905029296875	-159.7609710693359	-978.6607666015625	1124.342407226562	-179.0523986816406	-1034.771362304688	1117.160766601562	-89.22282409667969	-892.1378784179688	874.6717529296875	-111.9003524780273	-969.99609375	858.174560546875	-153.3515472412109	-967.5560913085938	1008.112976074219	-179.8502502441406	-865.84912109375	693.1925048828125	-83.75914764404297	-936.5526123046875	768.5609130859375	-148.8068084716797	-871.8772583007812	780.5575561523438	-120.6254653930664	-941.3464965820312	1502.757568359375	260.6952209472656	-961.6707153320312	1437.225219726562	333.6310729980469	-1025.784057617188	1178.453002929688	371.4971008300781	-1023.974304199219	1144.476196289062	277.023193359375	-929.148681640625	902.9926147460938	362.7959289550781	-996.6616821289062	901.3786010742188	426.6293029785156	-1022.648254394531	1102.736328125	392.8614196777344	-937.609375	718.2736206054688	355.8550720214844	-911.5150756835938	792.0343627929688	384.7189025878906	-967.3930053710938	797.2286987304688	433.484619140625	-924.8365478515625	1678.880615234375	-10.97795104980469	-831.5618286132812	1721.025756835938	181.7521362304688	-782.8030395507812	1716.676391601562	96.26687622070312	-989.6159057617188	1684.108642578125	118.0035858154297	-1002.564270019531	934.4482421875	-57.7642822265625	-832.85009765625	975.712646484375	210.2453765869141	-873.3048706054688	977.3170776367188	-20.4217700958252	-1011.754150390625	495.25732421875	-4.75317907333374	-1015.831420898438	633.66796875	-39.57662200927734	-1211.355346679688	43.25699996948242	20.70819282531738	-1141.940795898438	281.0393371582031	-7.10912561416626	-995.9219360351562	41.34437942504883	97.02765655517578	-1055.94384765625	51.46007537841797	108.6726608276367	-1086.429077148438	40.16939926147461	5.456064701080322	-1284.028076171875	55.7664909362793	68.62319183349609	-748.6964111328125	547.1454467773438	254.1779174804688	-843.248779296875	794.4158325195312	300.0086669921875	-711.189453125	52.29775619506836	208.9178466796875	-732.2481079101562	420.175048828125	249.6358184814453	-484.4279174804688	106.1935729980469	193.4528656005859	-543.0479736328125	96.12310028076172	156.7748260498047	-570.34423828125	83.27452850341797	249.0103912353516	-758.6043090820312	43.15926361083984	156.8986511230469	-911.187744140625	944.8756713867188	305.9580688476562	
184	1.83	-1040.85498046875	1048.511840820312	220.9513854980469	-1067.892211914062	1040.633666992188	61.01382827758789	-1058.229858398438	1106.901489257812	127.9159927368164	-821.9378051757812	1288.652221679688	104.3362274169922	-1073.661743164062	1251.386840820312	111.1344299316406	-1007.389343261719	1514.371215820312	84.88805389404297	-857.6752319335938	1416.355102539062	96.00428771972656	-1069.109252929688	1385.218994140625	171.0191040039062	-1028.3359375	1470.036376953125	-10.97521877288818	-926.041748046875	1469.57275390625	-85.5550537109375	-963.5640258789062	1342.6748046875	-158.6700439453125	-971.6448974609375	1123.076904296875	-178.0628967285156	-1027.974487304688	1115.859375	-88.36590576171875	-885.177001953125	873.385498046875	-110.7572021484375	-962.8970336914062	856.90869140625	-152.4178466796875	-960.5205078125	1006.848022460938	-178.8810577392578	-859.53271484375	691.52734375	-82.498291015625	-929.4474487304688	767.3116455078125	-147.8182525634766	-864.8377685546875	779.3372802734375	-119.4983901977539	-934.5888671875	1501.18505859375	261.9771118164062	-955.0315551757812	1435.624755859375	334.83984375	-1019.611572265625	1176.939086914062	372.4976196289062	-1017.884948730469	1143.025390625	277.9798278808594	-923.3068237304688	901.3869018554688	363.53564453125	-990.8471069335938	899.7708129882812	427.355224609375	-1016.591674804688	1101.18359375	393.8127746582031	-931.6539306640625	716.7471923828125	356.5242309570312	-905.7266235351562	790.3958740234375	385.3997192382812	-961.67529296875	795.5890502929688	434.1133422851562	-917.57080078125	1677.353393554688	-9.661070823669434	-825.353515625	1719.588989257812	183.556884765625	-776.1354370117188	1715.31787109375	98.344970703125	-983.0156860351562	1682.509765625	118.9341049194336	-997.0987548828125	933.4801025390625	-56.99472045898438	-826.402099609375	974.1585083007812	210.5378570556641	-867.6573486328125	976.1076049804688	-19.96927452087402	-1007.889770507812	494.4126892089844	-4.729878902435303	-1011.484985351562	632.9381713867188	-39.22842788696289	-1211.279296875	43.62787246704102	20.83431243896484	-1139.921142578125	281.0620727539062	-7.011745929718018	-995.9525146484375	41.33338928222656	97.03284454345703	-1055.908203125	51.46781921386719	108.6464157104492	-1086.388305664062	40.10926055908203	5.424280166625977	-1283.973754882812	56.92626953125	68.62002563476562	-741.7380981445312	545.9885864257812	254.9197998046875	-836.635009765625	792.9361572265625	300.8236389160156	-697.75537109375	52.06313705444336	208.6214752197266	-724.2711181640625	419.5059509277344	250.3245391845703	-471.6186828613281	109.2926177978516	197.2979888916016	-529.3746337890625	98.51890563964844	159.5520629882812	-558.052734375	84.91794586181641	251.2218170166016	-744.078369140625	42.39754104614258	155.8354339599609	-904.571044921875	943.1541137695312	306.3593139648438	
